<svg xmlns="http://www.w3.org/2000/svg" width="1440" height="360" viewBox="0 0 1440 360">
  <defs><linearGradient id="bg" x2="1" y2="1"><stop stop-color="#211714"/><stop offset=".52" stop-color="#6a392b"/><stop offset="1" stop-color="#17272b"/></linearGradient><radialGradient id="h"><stop stop-color="#dfb66e" stop-opacity=".62"/><stop offset="1" stop-color="#9e693a" stop-opacity="0"/></radialGradient><filter id="g"><feTurbulence baseFrequency=".65" numOctaves="3" seed="8" result="n"/><feBlend in="SourceGraphic" in2="n" mode="soft-light"/></filter></defs>
  <rect width="1440" height="360" fill="url(#bg)"/>
  <g filter="url(#g)" stroke="#d2aa68" stroke-width="3" stroke-linejoin="round">
    <g><rect x="5" y="5" width="230" height="350" fill="#34211c"/><circle cx="120" cy="135" r="105" fill="url(#h)" stroke="none"/><path d="M62 326Q69 215 120 204Q171 215 178 326Z" fill="#6f2330"/><circle cx="120" cy="144" r="47" fill="#c58f69"/><path d="M72 132Q75 65 120 68Q165 65 168 132L150 96L120 126L90 96Z" fill="#15171e"/><path d="M80 78L91 36L119 66L146 32L159 80Z" fill="#c69a42"/></g>
    <g transform="translate(240)"><rect x="5" y="5" width="230" height="350" fill="#263238"/><circle cx="120" cy="135" r="105" fill="url(#h)" stroke="none"/><path d="M54 326Q66 218 120 204Q174 218 186 326Z" fill="#35464c"/><path d="M76 156Q76 75 120 67Q164 75 164 156L148 191H92Z" fill="#8b8f8c"/><path d="M78 112H162M120 69V184" fill="none"/><path d="M53 324L94 220L120 263L148 220L187 324" fill="#29343b"/><path d="M165 235L198 104"/></g>
    <g transform="translate(480)"><rect x="5" y="5" width="230" height="350" fill="#172a35"/><circle cx="120" cy="135" r="105" fill="url(#h)" stroke="none"/><path d="M55 326Q69 216 120 201Q171 216 185 326Z" fill="#273557"/><circle cx="120" cy="140" r="45" fill="#9d684e"/><path d="M62 176Q62 66 120 54Q178 66 178 176L154 129Q120 85 86 129Z" fill="#171a32"/><circle cx="120" cy="43" r="13" fill="#334c8e"/><circle cx="120" cy="260" r="36" fill="#193f5b"/><path d="M88 260H152M120 228V292M95 236L145 284M145 236L95 284" fill="none" stroke-width="2"/></g>
    <g transform="translate(720)"><rect x="5" y="5" width="230" height="350" fill="#243323"/><circle cx="120" cy="135" r="105" fill="url(#h)" stroke="none"/><path d="M52 326Q64 215 120 203Q176 215 188 326Z" fill="#34452d"/><circle cx="120" cy="142" r="44" fill="#b27a59"/><path d="M70 157Q74 64 120 63Q166 64 170 157L149 119Q120 90 91 119Z" fill="#1f2921"/><path d="M54 324L104 205L120 254L137 205L187 324" fill="#263327"/><path d="M172 63Q213 142 171 233M176 74L197 228" fill="none"/></g>
    <g transform="translate(960)"><rect x="5" y="5" width="230" height="350" fill="#4a2920"/><circle cx="120" cy="135" r="105" fill="url(#h)" stroke="none"/><path d="M50 326Q64 220 120 205Q176 220 190 326Z" fill="#742f26"/><circle cx="120" cy="143" r="45" fill="#c18a63"/><path d="M73 133Q74 68 120 65Q166 68 167 133Q140 95 96 106Z" fill="#4a231a"/><path d="M70 326L96 219L120 246L145 219L171 326" fill="#5d261f"/><ellipse cx="153" cy="260" rx="42" ry="58" fill="#8a5328"/><circle cx="153" cy="260" r="12" fill="#30221a"/><path d="M117 205L172 313" fill="none"/></g>
    <g transform="translate(1200)"><rect x="5" y="5" width="230" height="350" fill="#30293b"/><circle cx="120" cy="135" r="105" fill="url(#h)" stroke="none"/><path d="M52 326Q67 216 120 203Q173 216 188 326Z" fill="#40344c"/><circle cx="120" cy="142" r="44" fill="#ad7658"/><path d="M73 134Q73 67 120 64Q167 67 167 134L148 105Q120 86 92 105Z" fill="#332637"/><path d="M62 326L98 213L120 245L143 213L179 326" fill="#342b41"/><path d="M153 240L190 310H116Z" fill="#466d65"/><path d="M168 239V207H182V239M151 267H189" fill="none"/></g>
  </g>
</svg>
